<svg width="6" height="6" viewBox="0 0 6 6" fill="none" xmlns="http://www.w3.org/2000/svg">
    <path d="M0.533477 1.07016C0.743851 0.789303 1.0075 0.552625 1.30933 0.373658C1.61117 0.19469 1.94528 0.0769167 2.29262 0.0270823C2.63997 -0.0227522 2.99372 -0.00367835 3.3337 0.083207C3.67367 0.170092 3.99321 0.323099 4.27406 0.533476C4.55491 0.743854 4.79161 1.00748 4.97057 1.30932C5.14954 1.61116 5.26726 1.9453 5.31709 2.29265C5.36692 2.64001 5.34785 2.99379 5.26097 3.33377C5.17408 3.67376 5.02113 3.9933 4.81076 4.27416C4.38589 4.84137 3.75306 5.21656 3.05156 5.31721C2.35006 5.41785 1.63732 5.23569 1.07012 4.81081C0.502923 4.38594 0.127736 3.75315 0.0270929 3.05163C-0.0735504 2.35012 0.108608 1.63737 0.533477 1.07016Z" fill="url(#paint0_linear_130_3)"/>
    <defs>
    <linearGradient id="paint0_linear_130_3" x1="1.10495" y1="4.78522" x2="4.23769" y2="0.526848" gradientUnits="userSpaceOnUse">
    <stop offset="0.01" stop-color="#79FF54"/>
    <stop offset="1" stop-color="#BBBBBB"/>
    </linearGradient>
    </defs>
    </svg>
    